<?xml version="1.0" standalone="no"?>
<!DOCTYPE svg PUBLIC "-//W3C//DTD SVG 20010904//EN"
 "http://www.w3.org/TR/2001/REC-SVG-20010904/DTD/svg10.dtd">
<svg version="1.0" xmlns="http://www.w3.org/2000/svg"
 width="23pt" height="23" viewBox="0 0 232.000000 253.000000"
 preserveAspectRatio="xMidYMid meet">

<g transform="translate(0.000000,253.000000) scale(0.100000,-0.100000)"
fill="#000000" stroke="none">
<path d="M1470 2359 c-240 -31 -471 -161 -618 -346 -179 -225 -247 -502 -191
-776 57 -284 225 -513 480 -656 106 -59 292 -111 399 -111 l50 0 0 95 0 95
-53 0 c-178 0 -404 116 -537 275 -179 216 -222 539 -104 793 85 185 230 324
414 399 73 29 178 53 238 53 l42 0 0 95 0 95 -27 -1 c-16 -1 -57 -5 -93 -10z"/>
<path d="M1500 1980 c-313 -49 -526 -353 -469 -666 43 -238 255 -436 494 -460
l65 -7 0 287 0 286 285 0 285 0 0 28 c0 51 -39 182 -72 244 -64 121 -203 233
-336 272 -69 20 -182 27 -252 16z"/>
<path d="M264 1328 c25 -337 161 -627 405 -866 222 -217 524 -352 829 -369
l92 -6 0 91 c0 102 0 102 -80 102 -120 0 -324 58 -459 131 -204 110 -382 294
-489 504 -59 118 -106 305 -115 455 l-2 45 -94 3 -94 3 7 -93z"/>
</g>
</svg>
